<svg width="254" height="254" viewBox="0 0 254 254" fill="none" xmlns="http://www.w3.org/2000/svg">
<rect width="254" height="254" fill="white"/>
<path d="M130.188 52.1068C130.099 48.6451 125.582 48.2904 125.054 51.7038L117.356 101.533L86.5679 55.6323C84.6995 52.8467 80.8093 55.452 82.1613 58.5833L102.267 105.149L79.8598 90.9674C77.2485 89.3148 74.626 93.1017 76.7387 95.4742L92.4023 113.065L50.347 111.173C47.2321 111.033 46.5967 115.997 49.6237 116.824L91.2031 128.186C93.8111 128.899 93.8317 133.003 91.2309 133.748L73.7006 138.768C70.8108 139.596 71.2742 144.297 74.257 144.412L83.3082 144.761L70.9301 154.377C68.459 156.297 70.4481 160.557 73.2874 159.426L104.703 146.911C106.591 146.159 108.499 147.974 108.115 150.159L101.71 186.65C101.142 189.882 105.13 191.454 106.529 188.549L111.943 177.305L113.235 202.296C113.412 205.717 117.871 205.975 118.368 202.593L125.092 156.892C125.41 157.145 125.683 157.488 125.883 157.921L144.703 198.812C146.096 201.839 150.238 200.138 149.519 196.834L140.675 156.214L154.816 165.271C157.324 166.877 159.952 163.396 158.087 160.939L148.001 147.656L203.906 161.745C207.005 162.526 208.397 157.619 205.453 156.291L155.936 133.958L184.449 133.996C187.542 134 188.031 129.068 185.01 128.327L153.063 120.493L182.511 101.685C185.192 99.9733 183.392 95.4311 180.442 96.4649L137.371 111.56L161.483 62.0396C162.967 58.9925 159.215 56.1799 157.22 58.8435L131.247 93.5146L130.188 52.1068Z" fill="#F7C7B8"/>
</svg>
