<svg width="170" height="59" viewBox="0 0 170 59" fill="none" xmlns="http://www.w3.org/2000/svg">
<path d="M17.3946 40.1894C16.3396 40.1894 15.3585 40.0506 14.4516 39.773C13.5631 39.4953 12.7486 39.0788 12.0083 38.5235C11.2864 37.9497 10.6385 37.2464 10.0647 36.4134L12.1193 34.0534C13.0263 35.3491 13.8963 36.2468 14.7292 36.7466C15.5621 37.2464 16.5524 37.4962 17.7 37.4962C18.4034 37.4962 19.042 37.3852 19.6158 37.1631C20.1896 36.941 20.6431 36.6355 20.9763 36.2468C21.3094 35.8581 21.476 35.4139 21.476 34.9141C21.476 34.581 21.4205 34.2663 21.3094 33.9701C21.1984 33.674 21.0225 33.4056 20.7819 33.165C20.5598 32.9243 20.2636 32.7022 19.8934 32.4986C19.5417 32.295 19.1253 32.1191 18.644 31.9711C18.1628 31.8045 17.6075 31.6657 16.9781 31.5546C15.9786 31.351 15.1086 31.0826 14.3683 30.7494C13.6279 30.4162 13.0078 29.9998 12.508 29.5C12.0083 29.0002 11.6381 28.4357 11.3974 27.8064C11.1568 27.1585 11.0365 26.4366 11.0365 25.6407C11.0365 24.8633 11.2031 24.1414 11.5363 23.4751C11.8879 22.8087 12.3599 22.2349 12.9523 21.7537C13.5631 21.2539 14.2757 20.8744 15.0901 20.6153C15.9046 20.3377 16.7838 20.1988 17.7278 20.1988C18.7273 20.1988 19.6436 20.3284 20.4765 20.5875C21.3094 20.8467 22.0498 21.2354 22.6977 21.7537C23.3455 22.2534 23.8823 22.8735 24.308 23.6139L22.1979 25.6962C21.8277 25.0854 21.4112 24.5764 20.9485 24.1692C20.4857 23.7435 19.9767 23.4288 19.4214 23.2252C18.8661 23.0031 18.2738 22.892 17.6445 22.892C16.9226 22.892 16.2933 23.0031 15.7565 23.2252C15.2197 23.4473 14.794 23.762 14.4793 24.1692C14.1832 24.5579 14.0351 25.0206 14.0351 25.5574C14.0351 25.9461 14.1091 26.3071 14.2572 26.6402C14.4053 26.9549 14.6274 27.2418 14.9236 27.501C15.2382 27.7416 15.6547 27.9637 16.173 28.1673C16.6912 28.3524 17.3113 28.519 18.0332 28.6671C19.0512 28.8892 19.9582 29.1761 20.7541 29.5278C21.5501 29.861 22.2257 30.2589 22.781 30.7217C23.3363 31.1844 23.7527 31.7027 24.0304 32.2765C24.3265 32.8503 24.4746 33.4704 24.4746 34.1367C24.4746 35.3769 24.1877 36.4504 23.6139 37.3574C23.0401 38.2644 22.2257 38.9678 21.1706 39.4675C20.1156 39.9488 18.8569 40.1894 17.3946 40.1894Z" fill="#0043A8"/>
<path d="M33.6098 40.1894C32.4067 40.1894 31.3054 39.8562 30.3058 39.1899C29.3248 38.5235 28.5382 37.6166 27.9458 36.469C27.3535 35.3213 27.0574 34.0257 27.0574 32.5819C27.0574 31.1196 27.3535 29.8239 27.9458 28.6948C28.5567 27.5472 29.3711 26.6495 30.3891 26.0017C31.4257 25.3538 32.5826 25.0299 33.8597 25.0299C34.6186 25.0299 35.3128 25.141 35.9421 25.3631C36.5714 25.5852 37.1175 25.8999 37.5802 26.3071C38.0615 26.6958 38.4502 27.1493 38.7463 27.6675C39.061 28.1858 39.2553 28.7411 39.3294 29.3334L38.6908 29.1113V25.3353H41.5783V39.9118H38.6908V36.4412L39.3571 36.2468C39.2461 36.7466 39.0147 37.2371 38.663 37.7184C38.3299 38.1811 37.8949 38.5976 37.3581 38.9678C36.8398 39.338 36.2568 39.6341 35.6089 39.8562C34.9796 40.0784 34.3132 40.1894 33.6098 40.1894ZM34.3595 37.5518C35.2295 37.5518 35.9976 37.3389 36.664 36.9132C37.3303 36.4875 37.8486 35.9044 38.2188 35.164C38.6075 34.4051 38.8018 33.5444 38.8018 32.5819C38.8018 31.6379 38.6075 30.7957 38.2188 30.0553C37.8486 29.3149 37.3303 28.7319 36.664 28.3061C35.9976 27.8804 35.2295 27.6675 34.3595 27.6675C33.508 27.6675 32.7491 27.8804 32.0828 28.3061C31.4349 28.7319 30.9167 29.3149 30.528 30.0553C30.1578 30.7957 29.9727 31.6379 29.9727 32.5819C29.9727 33.5444 30.1578 34.4051 30.528 35.164C30.9167 35.9044 31.4349 36.4875 32.0828 36.9132C32.7491 37.3389 33.508 37.5518 34.3595 37.5518Z" fill="#0043A8"/>
<path d="M53.2343 40.1894C52.605 40.1894 51.9756 40.0876 51.3463 39.884C50.7355 39.6804 50.1709 39.412 49.6526 39.0788C49.1529 38.7272 48.7272 38.3477 48.3755 37.9405C48.0423 37.5148 47.8202 37.089 47.7091 36.6633L48.431 36.2746V39.8285H45.5712V19.3659H48.431V28.6671L47.9868 28.4172C48.0793 27.9915 48.2829 27.5842 48.5976 27.1955C48.9123 26.7883 49.3102 26.4274 49.7915 26.1127C50.2912 25.7795 50.828 25.5204 51.4018 25.3353C51.9756 25.1317 52.5587 25.0299 53.151 25.0299C54.4652 25.0299 55.6313 25.3538 56.6493 26.0017C57.6674 26.6495 58.4726 27.5472 59.0649 28.6948C59.6572 29.8239 59.9534 31.1196 59.9534 32.5819C59.9534 34.0442 59.6572 35.3491 59.0649 36.4967C58.4911 37.6443 57.6952 38.5513 56.6771 39.2177C55.6591 39.8655 54.5115 40.1894 53.2343 40.1894ZM52.7623 37.5795C53.6137 37.5795 54.3726 37.3667 55.039 36.941C55.7053 36.4967 56.2329 35.9044 56.6216 35.164C57.0103 34.4051 57.2046 33.5444 57.2046 32.5819C57.2046 31.6379 57.0103 30.7957 56.6216 30.0553C56.2514 29.2964 55.7331 28.7041 55.0668 28.2784C54.4004 27.8526 53.6323 27.6398 52.7623 27.6398C51.8923 27.6398 51.1242 27.8526 50.4578 28.2784C49.7915 28.7041 49.2639 29.2964 48.8752 30.0553C48.4865 30.7957 48.2922 31.6379 48.2922 32.5819C48.2922 33.5444 48.4865 34.4051 48.8752 35.164C49.2639 35.9044 49.7915 36.4967 50.4578 36.941C51.1242 37.3667 51.8923 37.5795 52.7623 37.5795Z" fill="#0043A8"/>
<path d="M63.5317 39.9118V25.3353H66.3915V39.9118H63.5317ZM64.92 22.1146C64.3092 22.1146 63.8372 21.9573 63.504 21.6426C63.1708 21.3279 63.0042 20.8837 63.0042 20.3099C63.0042 19.7731 63.1708 19.3381 63.504 19.005C63.8557 18.6718 64.3277 18.5052 64.92 18.5052C65.5308 18.5052 66.0028 18.6625 66.336 18.9772C66.6692 19.2919 66.8357 19.7361 66.8357 20.3099C66.8357 20.8467 66.6599 21.2817 66.3082 21.6148C65.975 21.948 65.5123 22.1146 64.92 22.1146Z" fill="#0043A8"/>
<path d="M76.8677 40.1894C75.535 40.1894 74.3411 39.8655 73.286 39.2177C72.2495 38.5513 71.4258 37.6536 70.815 36.5245C70.2042 35.3769 69.8988 34.0719 69.8988 32.6097C69.8988 31.1474 70.1949 29.8517 70.7872 28.7226C71.398 27.575 72.2217 26.6773 73.2583 26.0294C74.2948 25.3631 75.4702 25.0299 76.7844 25.0299C77.5063 25.0299 78.2004 25.1502 78.8668 25.3908C79.5516 25.613 80.1624 25.9276 80.6992 26.3348C81.236 26.7235 81.6525 27.1585 81.9486 27.6398C82.2633 28.1025 82.4206 28.5745 82.4206 29.0558L81.5877 29.1113V19.3659H84.4475V39.9118H81.5877V36.4412H82.143C82.143 36.8854 81.9949 37.3297 81.6988 37.7739C81.4026 38.1996 81.0046 38.5976 80.5049 38.9678C80.0236 39.338 79.4591 39.6341 78.8112 39.8562C78.1819 40.0784 77.534 40.1894 76.8677 40.1894ZM77.2564 37.7184C78.1264 37.7184 78.8945 37.4962 79.5609 37.052C80.2272 36.6078 80.7455 36.0062 81.1157 35.2473C81.5044 34.4699 81.6988 33.5907 81.6988 32.6097C81.6988 31.6286 81.5044 30.7587 81.1157 29.9998C80.7455 29.2224 80.2272 28.6115 79.5609 28.1673C78.8945 27.7231 78.1264 27.501 77.2564 27.501C76.3864 27.501 75.6183 27.7231 74.9519 28.1673C74.2856 28.6115 73.758 29.2224 73.3693 29.9998C72.9991 30.7587 72.814 31.6286 72.814 32.6097C72.814 33.5907 72.9991 34.4699 73.3693 35.2473C73.758 36.0062 74.2856 36.6078 74.9519 37.052C75.6183 37.4962 76.3864 37.7184 77.2564 37.7184Z" fill="#0043A8"/>
<path d="M93.9927 40.1894C92.7895 40.1894 91.6882 39.8562 90.6887 39.1899C89.7076 38.5235 88.921 37.6166 88.3287 36.469C87.7363 35.3213 87.4402 34.0257 87.4402 32.5819C87.4402 31.1196 87.7363 29.8239 88.3287 28.6948C88.9395 27.5472 89.7539 26.6495 90.772 26.0017C91.8085 25.3538 92.9654 25.0299 94.2425 25.0299C95.0014 25.0299 95.6956 25.141 96.3249 25.3631C96.9542 25.5852 97.5003 25.8999 97.963 26.3071C98.4443 26.6958 98.833 27.1493 99.1291 27.6675C99.4438 28.1858 99.6382 28.7411 99.7122 29.3334L99.0736 29.1113V25.3353H101.961V39.9118H99.0736V36.4412L99.74 36.2468C99.6289 36.7466 99.3975 37.2371 99.0458 37.7184C98.7127 38.1811 98.2777 38.5976 97.7409 38.9678C97.2226 39.338 96.6396 39.6341 95.9917 39.8562C95.3624 40.0784 94.696 40.1894 93.9927 40.1894ZM94.7423 37.5518C95.6123 37.5518 96.3804 37.3389 97.0468 36.9132C97.7131 36.4875 98.2314 35.9044 98.6016 35.164C98.9903 34.4051 99.1847 33.5444 99.1847 32.5819C99.1847 31.6379 98.9903 30.7957 98.6016 30.0553C98.2314 29.3149 97.7131 28.7319 97.0468 28.3061C96.3804 27.8804 95.6123 27.6675 94.7423 27.6675C93.8909 27.6675 93.132 27.8804 92.4656 28.3061C91.8178 28.7319 91.2995 29.3149 90.9108 30.0553C90.5406 30.7957 90.3555 31.6379 90.3555 32.5819C90.3555 33.5444 90.5406 34.4051 90.9108 35.164C91.2995 35.9044 91.8178 36.4875 92.4656 36.9132C93.132 37.3389 93.8909 37.5518 94.7423 37.5518Z" fill="#0043A8"/>
<path fill-rule="evenodd" clip-rule="evenodd" d="M135.651 6.92799C135.621 5.86688 134.085 5.75816 133.905 6.80444L131.288 22.0786L120.819 8.00864C120.184 7.15479 118.861 7.95338 119.321 8.91323L126.157 23.1871L118.539 18.8399C117.651 18.3333 116.759 19.4941 117.477 20.2213L122.803 25.6134L108.504 25.0335C107.445 24.9905 107.229 26.5121 108.258 26.7656L122.396 30.2484C123.282 30.4669 123.289 31.7251 122.405 31.9533L116.444 33.4922C115.462 33.7458 115.619 35.1868 116.634 35.2221L119.711 35.3293L115.502 38.2768C114.662 38.8652 115.339 40.1711 116.304 39.8244L126.986 35.9882C127.628 35.7576 128.276 36.3142 128.146 36.9837L125.968 48.1692C125.775 49.1599 127.131 49.6417 127.606 48.7515L129.447 45.3048L129.887 52.9652C129.947 54.0139 131.463 54.0931 131.632 53.0564L133.918 39.0475C134.026 39.1252 134.119 39.2304 134.187 39.363L140.586 51.8972C141.06 52.8252 142.468 52.3039 142.224 51.291L139.217 38.8399L144.025 41.616C144.878 42.1082 145.771 41.0413 145.137 40.2882L141.708 36.2165L160.716 40.5353C161.77 40.7747 162.243 39.2706 161.242 38.8636L144.406 32.0177L154.1 32.0293C155.152 32.0305 155.318 30.5187 154.291 30.2916L143.429 27.8903L153.442 22.1253C154.353 21.6004 153.741 20.2081 152.738 20.525L138.093 25.1521L146.292 9.97266C146.796 9.03865 145.521 8.17651 144.842 8.99296L136.011 19.6206L135.651 6.92799Z" fill="#F7C7B8"/>
</svg>
