<svg width="456" height="456" xmlns="http://www.w3.org/2000/svg" clip-rule="evenodd" xml:space="preserve" version="1.1">

 <g>
  <title>Layer 1</title>

  <path stroke="null" stroke-width="2.37636" fill="#f7c7b8" d="m229.1635,34.59421c-3.32514,-0.23619 -6.80357,1.66586 -7.52807,5.90708l-21.22415,123.82813l-84.85531,-114.06093c-5.15559,-6.92098 -15.87155,-0.44311 -12.14379,7.33574l55.41624,115.70932l-61.76294,-35.23619c-7.20222,-4.10759 -14.42324,5.30186 -8.59954,11.19589l43.1627,43.71213l-115.9155,-4.71189c-8.58083,-0.34431 -10.33362,11.9858 -1.99185,14.03957l114.61036,28.2439c7.18825,1.76536 7.23582,11.96292 0.07044,13.81968l-48.31409,12.47354c-7.96197,2.05374 -6.69731,13.7374 1.52479,14.02577l24.947,0.86547l-34.10978,23.88917c-6.80837,4.76869 -1.32353,15.35557 6.49777,12.54221l86.58628,-31.08755c5.20478,-1.87094 10.46506,2.64093 9.41008,8.06376l-17.66622,90.68002c-1.56143,8.03224 9.44337,11.92823 13.29778,4.71189l14.91868,-27.92794l3.55796,62.0926c0.48529,8.49651 12.77793,9.14689 14.1494,0.74181l18.53163,-113.56626c0.87917,0.62597 1.63567,1.48602 2.18426,2.55509l51.87208,101.61485c3.84731,7.51883 15.2537,3.29013 13.27026,-4.91795l-24.36996,-100.92807l38.97271,22.50177c6.91394,3.99503 14.16687,-4.66498 9.02542,-10.77007l-27.80434,-33.01075l154.09147,35.01642c8.54567,1.94126 12.36814,-10.24627 4.25851,-13.54499l-136.48018,-55.49876l78.59116,0.08258c8.5317,0.0148 9.86624,-12.23794 1.53861,-14.08071l-88.0562,-19.46577l81.17381,-46.7343c7.39221,-4.25528 2.42978,-15.53529 -5.70099,-12.96806l-118.71786,37.50288l66.4611,-123.04509c4.08646,-7.5751 -6.24518,-14.55868 -11.74541,-7.94022l-71.59887,86.14669l-2.92598,-102.89242c-0.11958,-4.30098 -3.28264,-6.67337 -6.60775,-6.90994l-0.00172,-0.00012z" id="svg_6"/>
 </g>
</svg>