<svg width="456" height="456" viewBox="0 0 456 456" fill="none" xmlns="http://www.w3.org/2000/svg">
<path d="M105.437 249C103.359 249 101.427 248.731 99.6403 248.193C97.8904 247.656 96.2863 246.849 94.828 245.773C93.4062 244.662 92.1302 243.3 91 241.686L95.0467 237.115C96.8331 239.625 98.5466 241.364 100.187 242.332C101.828 243.3 103.778 243.784 106.039 243.784C107.424 243.784 108.682 243.569 109.812 243.138C110.942 242.708 111.835 242.117 112.491 241.364C113.148 240.611 113.476 239.75 113.476 238.782C113.476 238.137 113.366 237.528 113.148 236.954C112.929 236.38 112.583 235.86 112.109 235.394C111.671 234.928 111.088 234.498 110.359 234.104C109.666 233.709 108.846 233.369 107.898 233.082C106.95 232.759 105.856 232.49 104.617 232.275C102.648 231.881 100.935 231.361 99.4763 230.716C98.018 230.07 96.7967 229.264 95.8123 228.296C94.828 227.328 94.0989 226.234 93.6249 225.015C93.151 223.761 92.914 222.362 92.914 220.821C92.914 219.315 93.2421 217.917 93.8983 216.626C94.591 215.335 95.5207 214.224 96.6873 213.292C97.8904 212.324 99.294 211.589 100.898 211.087C102.502 210.549 104.234 210.28 106.093 210.28C108.062 210.28 109.867 210.531 111.507 211.033C113.148 211.535 114.606 212.288 115.882 213.292C117.158 214.26 118.215 215.461 119.054 216.895L114.898 220.928C114.168 219.745 113.348 218.759 112.437 217.971C111.525 217.146 110.523 216.536 109.429 216.142C108.335 215.712 107.169 215.497 105.929 215.497C104.507 215.497 103.268 215.712 102.211 216.142C101.153 216.572 100.315 217.182 99.695 217.971C99.1117 218.723 98.82 219.62 98.82 220.659C98.82 221.412 98.9659 222.111 99.2575 222.757C99.5492 223.366 99.9867 223.922 100.57 224.424C101.19 224.89 102.01 225.32 103.031 225.714C104.052 226.073 105.273 226.396 106.695 226.682C108.7 227.113 110.486 227.668 112.054 228.35C113.622 228.995 114.952 229.766 116.046 230.662C117.14 231.558 117.96 232.562 118.507 233.673C119.09 234.785 119.382 235.986 119.382 237.277C119.382 239.679 118.817 241.758 117.687 243.515C116.556 245.271 114.952 246.634 112.874 247.602C110.796 248.534 108.317 249 105.437 249Z" fill="#0043A8"/>
<path d="M137.375 249C135.005 249 132.836 248.355 130.867 247.064C128.935 245.773 127.385 244.017 126.219 241.794C125.052 239.571 124.469 237.061 124.469 234.265C124.469 231.433 125.052 228.923 126.219 226.736C127.422 224.513 129.026 222.775 131.031 221.52C133.073 220.265 135.351 219.638 137.867 219.638C139.362 219.638 140.729 219.853 141.968 220.283C143.208 220.713 144.283 221.323 145.195 222.111C146.143 222.864 146.908 223.743 147.492 224.746C148.111 225.75 148.494 226.826 148.64 227.973L147.382 227.543V220.229H153.069V248.462H147.382V241.74L148.695 241.364C148.476 242.332 148.02 243.282 147.327 244.214C146.671 245.11 145.814 245.917 144.757 246.634C143.736 247.351 142.588 247.924 141.312 248.355C140.073 248.785 138.76 249 137.375 249ZM138.851 243.891C140.565 243.891 142.078 243.479 143.39 242.654C144.703 241.83 145.723 240.7 146.453 239.266C147.218 237.796 147.601 236.129 147.601 234.265C147.601 232.437 147.218 230.805 146.453 229.371C145.723 227.937 144.703 226.808 143.39 225.983C142.078 225.159 140.565 224.746 138.851 224.746C137.174 224.746 135.679 225.159 134.367 225.983C133.091 226.808 132.07 227.937 131.305 229.371C130.575 230.805 130.211 232.437 130.211 234.265C130.211 236.129 130.575 237.796 131.305 239.266C132.07 240.7 133.091 241.83 134.367 242.654C135.679 243.479 137.174 243.891 138.851 243.891Z" fill="#0043A8"/>
<path d="M176.027 249C174.788 249 173.548 248.803 172.309 248.408C171.105 248.014 169.994 247.494 168.973 246.849C167.988 246.168 167.15 245.433 166.457 244.644C165.801 243.819 165.363 242.995 165.145 242.17L166.567 241.417V248.301H160.934V208.667H166.567V226.682L165.692 226.198C165.874 225.374 166.275 224.585 166.895 223.832C167.514 223.044 168.298 222.344 169.246 221.735C170.23 221.09 171.288 220.588 172.418 220.229C173.548 219.835 174.696 219.638 175.863 219.638C178.452 219.638 180.748 220.265 182.753 221.52C184.759 222.775 186.345 224.513 187.511 226.736C188.678 228.923 189.261 231.433 189.261 234.265C189.261 237.097 188.678 239.625 187.511 241.848C186.381 244.07 184.813 245.827 182.808 247.118C180.803 248.373 178.543 249 176.027 249ZM175.098 243.945C176.775 243.945 178.269 243.533 179.582 242.708C180.894 241.848 181.933 240.7 182.699 239.266C183.464 237.796 183.847 236.129 183.847 234.265C183.847 232.437 183.464 230.805 182.699 229.371C181.97 227.901 180.949 226.754 179.636 225.93C178.324 225.105 176.811 224.693 175.098 224.693C173.384 224.693 171.871 225.105 170.559 225.93C169.246 226.754 168.207 227.901 167.442 229.371C166.676 230.805 166.293 232.437 166.293 234.265C166.293 236.129 166.676 237.796 167.442 239.266C168.207 240.7 169.246 241.848 170.559 242.708C171.871 243.533 173.384 243.945 175.098 243.945Z" fill="#0043A8"/>
<path d="M196.309 248.462V220.229H201.942V248.462H196.309ZM199.043 213.991C197.84 213.991 196.911 213.686 196.254 213.077C195.598 212.467 195.27 211.607 195.27 210.496C195.27 209.456 195.598 208.613 196.254 207.968C196.947 207.323 197.877 207 199.043 207C200.246 207 201.176 207.305 201.832 207.914C202.489 208.524 202.817 209.384 202.817 210.496C202.817 211.535 202.47 212.378 201.778 213.023C201.121 213.668 200.21 213.991 199.043 213.991Z" fill="#0043A8"/>
<path d="M222.576 249C219.951 249 217.599 248.373 215.521 247.118C213.48 245.827 211.857 244.088 210.654 241.901C209.451 239.679 208.85 237.151 208.85 234.319C208.85 231.487 209.433 228.977 210.6 226.79C211.803 224.567 213.425 222.828 215.467 221.574C217.508 220.283 219.823 219.638 222.412 219.638C223.834 219.638 225.201 219.871 226.513 220.337C227.862 220.767 229.065 221.376 230.122 222.165C231.18 222.918 232 223.761 232.583 224.693C233.203 225.589 233.513 226.503 233.513 227.435L231.872 227.543V208.667H237.505V248.462H231.872V241.74H232.966C232.966 242.601 232.674 243.461 232.091 244.321C231.508 245.146 230.724 245.917 229.74 246.634C228.792 247.351 227.68 247.924 226.404 248.355C225.164 248.785 223.888 249 222.576 249ZM223.341 244.214C225.055 244.214 226.568 243.784 227.88 242.923C229.193 242.063 230.213 240.898 230.943 239.428C231.708 237.922 232.091 236.219 232.091 234.319C232.091 232.419 231.708 230.734 230.943 229.264C230.213 227.758 229.193 226.575 227.88 225.714C226.568 224.854 225.055 224.424 223.341 224.424C221.628 224.424 220.115 224.854 218.802 225.714C217.49 226.575 216.451 227.758 215.685 229.264C214.956 230.734 214.592 232.419 214.592 234.319C214.592 236.219 214.956 237.922 215.685 239.428C216.451 240.898 217.49 242.063 218.802 242.923C220.115 243.784 221.628 244.214 223.341 244.214Z" fill="#0043A8"/>
<path d="M256.305 249C253.936 249 251.766 248.355 249.798 247.064C247.865 245.773 246.316 244.017 245.149 241.794C243.983 239.571 243.399 237.061 243.399 234.265C243.399 231.433 243.983 228.923 245.149 226.736C246.352 224.513 247.957 222.775 249.962 221.52C252.003 220.265 254.282 219.638 256.797 219.638C258.292 219.638 259.659 219.853 260.899 220.283C262.138 220.713 263.214 221.323 264.125 222.111C265.073 222.864 265.839 223.743 266.422 224.746C267.042 225.75 267.425 226.826 267.57 227.973L266.313 227.543V220.229H272V248.462H266.313V241.74L267.625 241.364C267.406 242.332 266.951 243.282 266.258 244.214C265.602 245.11 264.745 245.917 263.688 246.634C262.667 247.351 261.519 247.924 260.243 248.355C259.003 248.785 257.691 249 256.305 249ZM257.782 243.891C259.495 243.891 261.008 243.479 262.321 242.654C263.633 241.83 264.654 240.7 265.383 239.266C266.149 237.796 266.531 236.129 266.531 234.265C266.531 232.437 266.149 230.805 265.383 229.371C264.654 227.937 263.633 226.808 262.321 225.983C261.008 225.159 259.495 224.746 257.782 224.746C256.105 224.746 254.61 225.159 253.298 225.983C252.022 226.808 251.001 227.937 250.235 229.371C249.506 230.805 249.141 232.437 249.141 234.265C249.141 236.129 249.506 237.796 250.235 239.266C251.001 240.7 252.022 241.83 253.298 242.654C254.61 243.479 256.105 243.891 257.782 243.891Z" fill="#0043A8"/>
<path d="M338.38 182.683C338.32 180.593 335.295 180.379 334.941 182.44L329.785 212.527L309.165 184.812C307.913 183.13 305.308 184.703 306.213 186.594L319.68 214.71L304.672 206.147C302.923 205.149 301.167 207.436 302.582 208.868L313.072 219.49L284.905 218.347C282.819 218.263 282.394 221.26 284.421 221.759L312.269 228.62C314.016 229.05 314.03 231.528 312.288 231.978L300.547 235.009C298.611 235.509 298.922 238.347 300.919 238.417L306.982 238.628L298.691 244.434C297.036 245.593 298.368 248.165 300.27 247.482L321.311 239.926C322.576 239.472 323.853 240.568 323.596 241.887L319.306 263.92C318.926 265.872 321.597 266.821 322.534 265.067L326.16 258.278L327.025 273.367C327.144 275.433 330.13 275.589 330.463 273.547L334.967 245.952C335.179 246.105 335.363 246.312 335.496 246.574L348.101 271.263C349.034 273.091 351.809 272.065 351.327 270.069L345.404 245.543L354.875 251.011C356.554 251.981 358.315 249.879 357.065 248.396L350.31 240.376L387.754 248.883C389.829 249.354 390.761 246.391 388.79 245.59L355.625 232.105L374.722 232.128C376.794 232.13 377.121 229.152 375.098 228.705L353.701 223.975L373.424 212.619C375.219 211.585 374.014 208.842 372.038 209.466L343.191 218.581L359.34 188.68C360.334 186.841 357.821 185.142 356.485 186.751L339.089 207.685L338.38 182.683Z" fill="#F7C7B8"/>
</svg>
