<?xml version="1.0" encoding="UTF-8" standalone="no"?>
<!DOCTYPE svg PUBLIC "-//W3C//DTD SVG 1.1//EN" "http://www.w3.org/Graphics/SVG/1.1/DTD/svg11.dtd">
<svg width="456" height="456" xmlns="http://www.w3.org/2000/svg" clip-rule="evenodd" xml:space="preserve" version="1.1">

 <g>
  <title>Layer 1</title>

  <path stroke-width="2.37636" fill="#0043a8" id="svg_7" d="m170.45767,198.29618c-1.62304,0 -2.91308,0.45665 -3.87549,1.36918c-0.91252,0.91252 -1.36921,2.10286 -1.36921,3.57382c0,1.57076 0.45669,2.78545 1.36921,3.64806c0.9125,0.86262 2.20254,1.29496 3.87549,1.29496c1.62306,0 2.88873,-0.45669 3.80125,-1.36922c0.96242,-0.91252 1.44808,-2.10283 1.44808,-3.5738c0,-1.57077 -0.45666,-2.78546 -1.36919,-3.64808c-0.91251,-0.86263 -2.20717,-1.29492 -3.88014,-1.29492zm-52.98996,2.35778l0,56.04394l7.82991,0l0,-5.00335c0.93336,1.05105 2.04687,2.03815 3.34639,2.95189c1.41868,0.91252 2.96378,1.6462 4.63667,2.20462c1.72287,0.55844 3.44985,0.83544 5.1751,0.83544c3.49799,0 6.63667,-0.88898 9.42651,-2.66413c2.78749,-1.82503 4.96647,-4.30539 6.53961,-7.4493c1.62068,-3.14392 2.43207,-6.71729 2.43207,-10.72145c0,-4.00416 -0.81139,-7.55556 -2.43207,-10.64719c-1.62304,-3.14393 -3.82641,-5.59994 -6.61386,-7.37507c-2.78985,-1.7751 -5.98654,-2.66412 -9.58436,-2.66412c-1.62304,0 -3.21904,0.27701 -4.78982,0.83545c-1.57314,0.50616 -3.04047,1.21786 -4.40924,2.13036c-1.31889,0.86263 -2.4119,1.85134 -3.27213,2.9658c-0.16611,0.20508 -0.31127,0.41311 -0.45487,0.62194l0,-22.06483l-7.82991,0zm98.64196,0l0,21.33152c-0.67748,-0.80024 -1.47932,-1.55353 -2.43668,-2.2464c-1.46859,-1.11451 -3.13995,-1.97687 -5.01724,-2.58521c-1.82508,-0.65825 -3.72707,-0.98863 -5.70422,-0.98863c-3.59776,0 -6.81882,0.91333 -9.65858,2.73841c-2.83736,1.77511 -5.09408,4.23112 -6.76702,7.37504c-1.62067,3.09164 -2.43206,6.64304 -2.43206,10.6472c0,4.00416 0.83801,7.57752 2.51096,10.72144c1.67295,3.09164 3.92967,5.55001 6.76702,7.37504c2.88965,1.77515 6.15705,2.66413 9.80713,2.66413c1.82504,0 3.60072,-0.30599 5.32358,-0.91434c1.77514,-0.60835 3.32483,-1.41735 4.64134,-2.43205c1.2123,-0.89871 2.19133,-1.86002 2.96577,-2.87761l0,5.46285l7.82995,0l0,-56.27139l-7.82995,0zm-174.90349,2.27888c-2.58547,0 -4.99048,0.38134 -7.22187,1.14179c-2.23141,0.71051 -4.18439,1.75017 -5.85738,3.11895c-1.62301,1.31888 -2.9177,2.89056 -3.88013,4.7156c-0.91252,1.82503 -1.36918,3.80238 -1.36918,5.93159c0,2.17914 0.33036,4.15647 0.98861,5.93161c0.65826,1.72286 1.67593,3.26792 3.04471,4.6367c1.36878,1.36875 3.06914,2.50811 5.09617,3.42064c2.02703,0.91252 4.41005,1.64617 7.14763,2.20462c1.72286,0.30416 3.24354,0.68551 4.5624,1.14176c1.31887,0.40637 2.45825,0.88966 3.42065,1.4481c1.0147,0.55846 1.82371,1.16577 2.43206,1.82403c0.65823,0.65824 1.14391,1.3943 1.44809,2.20463c0.30417,0.81035 0.45483,1.6727 0.45483,2.58522c0,1.36878 -0.45665,2.58348 -1.36918,3.64808c-0.91252,1.06462 -2.15621,1.90261 -3.72698,2.51096c-1.57077,0.60835 -3.31745,0.91433 -5.24469,0.91433c-3.14391,0 -5.85493,-0.68732 -8.13623,-2.05611c-2.28131,-1.36877 -4.66897,-3.82717 -7.15226,-7.37505l-5.62529,6.46535c1.57078,2.2813 3.34648,4.20769 5.32359,5.77846c2.02703,1.52084 4.2594,2.66021 6.69279,3.42064c2.48329,0.76044 5.16769,1.14176 8.05734,1.14176c4.00413,0 7.45584,-0.6583 10.34549,-1.97719c2.88965,-1.36878 5.11739,-3.29516 6.68814,-5.77844c1.57077,-2.48329 2.3578,-5.42735 2.3578,-8.82316c0,-1.82502 -0.40571,-3.52542 -1.21604,-5.09618c-0.76044,-1.57077 -1.89977,-2.98949 -3.42064,-4.25607c-1.52088,-1.26661 -3.37191,-2.3596 -5.55103,-3.27216c-2.17911,-0.9624 -4.66651,-1.74478 -7.45397,-2.35313c-1.97712,-0.40635 -3.67747,-0.86303 -5.09616,-1.36919c-1.41868,-0.55844 -2.55802,-1.17042 -3.42064,-1.82868c-0.81034,-0.71052 -1.41768,-1.49054 -1.82405,-2.35315c-0.40635,-0.91252 -0.608,-1.90119 -0.608,-2.96579c0,-1.47097 0.40569,-2.7413 1.21602,-3.8059c0.86262,-1.11451 2.02861,-1.97687 3.49956,-2.58522c1.47096,-0.60834 3.1933,-0.90968 5.17042,-0.90968c1.72286,0 3.34323,0.30134 4.86411,0.90968c1.52087,0.55844 2.91986,1.41842 4.18647,2.58522c1.26659,1.11451 2.40596,2.50888 3.42067,4.18183l5.77843,-5.69953c-1.16677,-2.02704 -2.63411,-3.72739 -4.40925,-5.09618c-1.77514,-1.41867 -3.80347,-2.48269 -6.08477,-3.19323c-2.2813,-0.71052 -4.79067,-1.06751 -7.52824,-1.06751zm44.18538,13.2324c-3.498,0 -6.66805,0.88902 -9.50544,2.66412c-2.78983,1.77513 -5.01983,4.23114 -6.69276,7.37507c-1.62305,3.09163 -2.43205,6.64303 -2.43205,10.64719c0,3.95426 0.809,7.49867 2.43205,10.64254c1.62065,3.14391 3.77306,5.62892 6.4607,7.45395c2.73755,1.82505 5.75458,2.73839 9.05059,2.73839c1.92485,0 3.75152,-0.30599 5.47677,-0.91434c1.77275,-0.60835 3.36876,-1.41735 4.78982,-2.43205c1.46859,-1.01472 2.66131,-2.15405 3.57382,-3.42066c0.02712,-0.0371 0.04773,-0.0743 0.07422,-0.11146l0,6.11727l7.9088,0l0,-39.92466l-7.9088,0l0,6.13583c-0.79208,-1.31234 -1.8036,-2.47182 -3.04006,-3.4717c-1.26899,-1.11451 -2.7653,-1.97686 -4.48816,-2.58521c-1.72522,-0.60835 -3.6226,-0.91434 -5.69954,-0.91434l0.00004,0.00006zm165.37951,0c-3.498,0 -6.66806,0.88902 -9.50543,2.66412c-2.78984,1.77513 -5.02447,4.23114 -6.69742,7.37507c-1.62068,3.09163 -2.4274,6.64303 -2.4274,10.64719c0,3.95426 0.80672,7.49867 2.4274,10.64254c1.62305,3.14391 3.78235,5.62892 6.47,7.45395c2.73757,1.82505 5.75231,2.73839 9.04593,2.73839c1.92723,0 3.75154,-0.30599 5.47677,-0.91434c1.77277,-0.60835 3.37115,-1.41735 4.78982,-2.43205c1.47098,-1.01472 2.66132,-2.15405 3.57384,-3.42066c0.029,-0.04 0.0504,-0.0808 0.0789,-0.12071l0,6.12654l7.90416,0l0,-39.92464l-7.90416,0l0,6.14511c-0.79285,-1.316 -1.80547,-2.47885 -3.04471,-3.48098c-1.26898,-1.11451 -2.76066,-1.97687 -4.48352,-2.58522c-1.72524,-0.60835 -3.62725,-0.91434 -5.70418,-0.91434l0,0.00003zm-84.11463,0.83545l0,39.92466l7.83453,0l0,-39.92466l-7.83453,0zm37.59005,5.93161c2.38349,0 4.48715,0.61198 6.31219,1.82868c1.82505,1.2167 3.24375,2.88805 4.25607,5.01727c1.06463,2.07932 1.59663,4.45996 1.59663,7.14764c0,2.68764 -0.532,5.09734 -1.59663,7.22654c-1.01232,2.07929 -2.43102,3.7263 -4.25607,4.94298c-1.82504,1.2167 -3.9287,1.82404 -6.31219,1.82404c-2.38112,0 -4.48715,-0.60734 -6.3122,-1.82404c-1.82505,-1.21668 -3.27038,-2.86369 -4.33498,-4.94298c-1.01235,-2.1292 -1.52238,-4.5389 -1.52238,-7.22654c0,-2.68768 0.51003,-5.06832 1.52238,-7.14764c1.0646,-2.12922 2.50993,-3.80057 4.33498,-5.01727c1.82505,-1.2167 3.93108,-1.82868 6.3122,-1.82868zm-67.08563,0.38058c2.38109,0 4.48714,0.58299 6.31219,1.74979c1.82502,1.16679 3.24136,2.78943 4.25607,4.86874c1.0646,2.02704 1.59663,4.33474 1.59663,6.92021c0,2.63538 -0.53203,4.98942 -1.59663,7.06874c-1.06462,2.02703 -2.5053,3.65205 -4.33034,4.86875c-1.82504,1.16678 -3.90673,1.74976 -6.23792,1.74977c-2.38349,0 -4.48717,-0.58299 -6.31221,-1.74977c-1.82504,-1.2167 -3.27038,-2.84172 -4.335,-4.86875c-1.06461,-2.07932 -1.59663,-4.43336 -1.59663,-7.06874c0,-2.58547 0.53202,-4.89317 1.59663,-6.92021c1.06462,-2.07931 2.50996,-3.70195 4.335,-4.86874c1.82504,-1.1668 3.92872,-1.74979 6.31221,-1.74979zm-50.40012,0.0788c2.38112,0 4.48252,0.58295 6.30756,1.74978c1.82504,1.16677 3.24603,2.7628 4.26073,4.78983c1.06461,2.02702 1.59661,4.33473 1.59661,6.92021c0,2.63538 -0.532,4.98942 -1.59661,7.06872c-1.0147,2.02704 -2.43569,3.62771 -4.26073,4.7945c-1.82504,1.16679 -3.92644,1.74511 -6.30756,1.74511c-2.33358,0 -4.4129,-0.57832 -6.23793,-1.74511c-1.77514,-1.16679 -3.19148,-2.76746 -4.25608,-4.7945c-1.0147,-2.0793 -1.52237,-4.43334 -1.52237,-7.06872c0,-2.58548 0.50767,-4.89319 1.52237,-6.92021c1.0646,-2.02703 2.48094,-3.62306 4.25608,-4.78983c1.82503,-1.16679 3.90435,-1.74978 6.23793,-1.74978zm165.37952,0c2.3811,0 4.48714,0.58295 6.31219,1.74978c1.82505,1.16677 3.24139,2.7628 4.25609,4.78983c1.06462,2.02702 1.59661,4.33473 1.59661,6.92021c0,2.63538 -0.53199,4.98942 -1.59661,7.06872c-1.0147,2.02704 -2.43104,3.62771 -4.25609,4.7945c-1.82505,1.16679 -3.93109,1.74511 -6.31219,1.74511c-2.33359,0 -4.41291,-0.57832 -6.23794,-1.74511c-1.77514,-1.16679 -3.19147,-2.76746 -4.25608,-4.7945c-1.01472,-2.0793 -1.52236,-4.43334 -1.52236,-7.06872c0,-2.58548 0.50764,-4.89319 1.52236,-6.92021c1.06461,-2.02703 2.48094,-3.62306 4.25608,-4.78983c1.82503,-1.16679 3.90435,-1.74978 6.23794,-1.74978z"/>
  <path stroke-width="2.37636" fill="#f7c7b8" d="m361.9446,162.65548c-1.12344,-0.0798 -2.29867,0.56283 -2.54345,1.99578l-7.17084,41.83686l-28.66941,-38.53689c-1.74188,-2.33834 -5.3624,-0.14971 -4.10293,2.47847l18.72306,39.09382l-20.86737,-11.90498c-2.43336,-1.3878 -4.87307,1.7913 -2.90546,3.78267l14.58305,14.76868l-39.16348,-1.59197c-2.89914,-0.11633 -3.49134,4.04955 -0.67297,4.74344l38.72252,9.54255c2.42864,0.59645 2.44471,4.04182 0.0238,4.66915l-16.32351,4.21434c-2.69005,0.69388 -2.26277,4.64135 0.51517,4.73878l8.42865,0.29241l-11.52441,8.07125c-2.30029,1.61116 -0.44717,5.18807 2.19535,4.23754l29.25424,-10.50331c1.7585,-0.63212 3.53575,0.89227 3.17931,2.72444l-5.96875,30.63736c-0.52755,2.71379 3.19056,4.0301 4.49282,1.59197l5.04046,-9.4358l1.2021,20.97875c0.16396,2.87065 4.31718,3.09039 4.78055,0.25063l6.26114,-38.36976c0.29704,0.21149 0.55263,0.50207 0.73798,0.86327l17.52562,34.33183c1.29986,2.54033 5.15365,1.11161 4.48352,-1.66159l-8.23369,-34.09979l13.16741,7.6025c2.33596,1.34977 4.78645,-1.57612 3.04935,-3.6388l-9.39404,-11.15309l52.0617,11.83073c2.88726,0.65588 4.17873,-3.46183 1.43879,-4.57634l-46.11151,-18.75094l26.55299,0.0279c2.88254,0.005 3.33343,-4.13474 0.51984,-4.75734l-29.75087,-6.57675l27.42557,-15.78976c2.49755,-1.4377 0.82093,-5.24879 -1.92615,-4.38142l-40.11029,12.67081l22.4547,-41.5723c1.38066,-2.55934 -2.11001,-4.91883 -3.96833,-2.6827l-24.19056,29.10572l-0.98858,-34.76347c-0.0404,-1.45314 -1.10908,-2.25468 -2.23251,-2.33461l-0.00058,-0.00004z" id="svg_6"/>
 </g>
</svg>