<?xml version="1.0" encoding="UTF-8" standalone="no"?>
<svg
   width="456"
   height="456"
   viewBox="0 0 456 456"
   fill="none"
   version="1.1"
   id="svg7"
   sodipodi:docname="sabida.svg"
   inkscape:version="1.3-beta (cedbd6c6ff, 2023-05-28)"
   xmlns:inkscape="http://www.inkscape.org/namespaces/inkscape"
   xmlns:sodipodi="http://sodipodi.sourceforge.net/DTD/sodipodi-0.dtd"
   xmlns="http://www.w3.org/2000/svg"
   xmlns:svg="http://www.w3.org/2000/svg">
  <defs
     id="defs7" />
  <sodipodi:namedview
     id="namedview7"
     pagecolor="#ffffff"
     bordercolor="#000000"
     borderopacity="0.25"
     inkscape:showpageshadow="2"
     inkscape:pageopacity="0.0"
     inkscape:pagecheckerboard="0"
     inkscape:deskcolor="#d1d1d1"
     showgrid="false"
     inkscape:zoom="1.2048727"
     inkscape:cx="298.78674"
     inkscape:cy="298.37176"
     inkscape:window-width="1920"
     inkscape:window-height="991"
     inkscape:window-x="-9"
     inkscape:window-y="-9"
     inkscape:window-maximized="1"
     inkscape:current-layer="svg7" />
  <path
     d="m 171.72483,193.3141 c -1.62304,0 -2.91308,0.45665 -3.87549,1.36918 -0.91252,0.91252 -1.36921,2.10286 -1.36921,3.57382 0,1.57076 0.45669,2.78545 1.36921,3.64806 0.9125,0.86262 2.20254,1.29496 3.87549,1.29496 1.62306,0 2.88873,-0.45669 3.80125,-1.36922 0.96242,-0.91252 1.44808,-2.10283 1.44808,-3.5738 0,-1.57077 -0.45666,-2.78546 -1.36919,-3.64808 -0.91251,-0.86263 -2.20717,-1.29492 -3.88014,-1.29492 z m -52.98996,2.35778 v 56.04394 h 7.82991 v -5.00335 c 0.93336,1.05105 2.04687,2.03815 3.34639,2.95189 1.41868,0.91252 2.96378,1.6462 4.63667,2.20462 1.72287,0.55844 3.44985,0.83544 5.1751,0.83544 3.49799,0 6.63667,-0.88898 9.42651,-2.66413 2.78749,-1.82503 4.96647,-4.30539 6.53961,-7.4493 1.62068,-3.14392 2.43207,-6.71729 2.43207,-10.72145 0,-4.00416 -0.81139,-7.55556 -2.43207,-10.64719 -1.62304,-3.14393 -3.82641,-5.59994 -6.61386,-7.37507 -2.78985,-1.7751 -5.98654,-2.66412 -9.58436,-2.66412 -1.62304,0 -3.21904,0.27701 -4.78982,0.83545 -1.57314,0.50616 -3.04047,1.21786 -4.40924,2.13036 -1.31889,0.86263 -2.4119,1.85134 -3.27213,2.9658 -0.16611,0.20508 -0.31127,0.41311 -0.45487,0.62194 v -22.06483 z m 98.64196,0 v 21.33152 c -0.67748,-0.80024 -1.47932,-1.55353 -2.43668,-2.2464 -1.46859,-1.11451 -3.13995,-1.97687 -5.01724,-2.58521 -1.82508,-0.65825 -3.72707,-0.98863 -5.70422,-0.98863 -3.59776,0 -6.81882,0.91333 -9.65858,2.73841 -2.83736,1.77511 -5.09408,4.23112 -6.76702,7.37504 -1.62067,3.09164 -2.43206,6.64304 -2.43206,10.6472 0,4.00416 0.83801,7.57752 2.51096,10.72144 1.67295,3.09164 3.92967,5.55001 6.76702,7.37504 2.88965,1.77515 6.15705,2.66413 9.80713,2.66413 1.82504,0 3.60072,-0.30599 5.32358,-0.91434 1.77514,-0.60835 3.32483,-1.41735 4.64134,-2.43205 1.2123,-0.89871 2.19133,-1.86002 2.96577,-2.87761 v 5.46285 h 7.82995 v -56.27139 z m -174.903489,2.27888 c -2.58547,0 -4.990476,0.38134 -7.221873,1.14179 -2.231409,0.71051 -4.184392,1.75017 -5.857374,3.11895 -1.623016,1.31888 -2.917699,2.89056 -3.880129,4.7156 -0.912523,1.82503 -1.369181,3.80238 -1.369181,5.93159 0,2.17914 0.330354,4.15647 0.988608,5.93161 0.658255,1.72286 1.67593,3.26792 3.044707,4.6367 1.368778,1.36875 3.069137,2.50811 5.096168,3.42064 2.027033,0.91252 4.410058,1.64617 7.14763,2.20462 1.722859,0.30416 3.243539,0.68551 4.562402,1.14176 1.318876,0.40637 2.458252,0.88966 3.420652,1.4481 1.014695,0.55846 1.823712,1.16577 2.432061,1.82403 0.658232,0.65824 1.143912,1.3943 1.448093,2.20463 0.304169,0.81035 0.454828,1.6727 0.454828,2.58522 0,1.36878 -0.456652,2.58348 -1.369183,3.64808 -0.912518,1.06462 -2.156207,1.90261 -3.726982,2.51096 -1.570763,0.60835 -3.317451,0.91433 -5.244689,0.91433 -3.143911,0 -5.854932,-0.68732 -8.136233,-2.05611 -2.281301,-1.36877 -4.668965,-3.82717 -7.152252,-7.37505 l -5.62529,6.46535 c 1.570777,2.2813 3.346472,4.20769 5.323583,5.77846 2.027033,1.52084 4.259401,2.66021 6.692797,3.42064 2.483286,0.76044 5.16769,1.14176 8.05734,1.14176 4.004122,0 7.455839,-0.6583 10.345489,-1.97719 2.889651,-1.36878 5.117383,-3.29516 6.688133,-5.77844 1.570775,-2.48329 2.3578,-5.42735 2.3578,-8.82316 0,-1.82502 -0.405708,-3.52542 -1.216037,-5.09618 -0.760434,-1.57077 -1.899772,-2.98949 -3.42064,-4.25607 -1.520879,-1.26661 -3.371906,-2.3596 -5.551031,-3.27216 -2.179112,-0.9624 -4.666503,-1.74478 -7.453965,-2.35313 -1.97712,-0.40635 -3.677474,-0.86303 -5.096163,-1.36919 -1.418682,-0.55844 -2.558024,-1.17042 -3.420642,-1.82868 -0.810334,-0.71052 -1.417681,-1.49054 -1.824045,-2.35315 -0.406348,-0.91252 -0.608005,-1.90119 -0.608005,-2.96579 0,-1.47097 0.405691,-2.7413 1.216026,-3.8059 0.862618,-1.11451 2.028602,-1.97687 3.499554,-2.58522 1.470967,-0.60834 3.193302,-0.90968 5.170422,-0.90968 1.72286,0 3.34323,0.30134 4.86411,0.90968 1.520867,0.55844 2.919865,1.41842 4.186471,2.58522 1.266594,1.11451 2.405958,2.50888 3.420665,4.18183 l 5.778439,-5.69953 c -1.166779,-2.02704 -2.634115,-3.72739 -4.409256,-5.09618 -1.775141,-1.41867 -3.803468,-2.48269 -6.084769,-3.19323 -2.281301,-0.71052 -4.790673,-1.06751 -7.528239,-1.06751 z m 44.185378,13.2324 c -3.498,0 -6.668053,0.88902 -9.505434,2.66412 -2.789836,1.77513 -5.01983,4.23114 -6.692769,7.37507 -1.623044,3.09163 -2.432049,6.64303 -2.432049,10.64719 0,3.95426 0.809005,7.49867 2.432049,10.64254 1.620657,3.14391 3.773066,5.62892 6.4607,7.45395 2.737554,1.82505 5.754585,2.73839 9.050593,2.73839 1.924851,0 3.751524,-0.30599 5.47677,-0.91434 1.772754,-0.60835 3.368758,-1.41735 4.789823,-2.43205 1.468586,-1.01472 2.661305,-2.15405 3.573823,-3.42066 0.02712,-0.0371 0.04773,-0.0743 0.07422,-0.11146 v 6.11727 h 7.908795 v -39.92466 h -7.908795 v 6.13583 c -0.792085,-1.31234 -1.803606,-2.47182 -3.04006,-3.4717 -1.268993,-1.11451 -2.765307,-1.97686 -4.488166,-2.58521 -1.725221,-0.60835 -3.622594,-0.91434 -5.699542,-0.91434 z m 165.379511,0 c -3.498,0 -6.66806,0.88902 -9.50543,2.66412 -2.78984,1.77513 -5.02447,4.23114 -6.69742,7.37507 -1.62068,3.09163 -2.4274,6.64303 -2.4274,10.64719 0,3.95426 0.80672,7.49867 2.4274,10.64254 1.62305,3.14391 3.78235,5.62892 6.47,7.45395 2.73757,1.82505 5.75231,2.73839 9.04593,2.73839 1.92723,0 3.75154,-0.30599 5.47677,-0.91434 1.77277,-0.60835 3.37115,-1.41735 4.78982,-2.43205 1.47098,-1.01472 2.66132,-2.15405 3.57384,-3.42066 0.029,-0.04 0.0504,-0.0808 0.0789,-0.12071 v 6.12654 h 7.90416 v -39.92464 h -7.90416 v 6.14511 c -0.79285,-1.316 -1.80547,-2.47885 -3.04471,-3.48098 -1.26898,-1.11451 -2.76066,-1.97687 -4.48352,-2.58522 -1.72524,-0.60835 -3.62725,-0.91434 -5.70418,-0.91434 z m -84.11463,0.83545 v 39.92466 h 7.83453 v -39.92466 z m 37.59005,5.93161 c 2.38349,0 4.48715,0.61198 6.31219,1.82868 1.82505,1.2167 3.24375,2.88805 4.25607,5.01727 1.06463,2.07932 1.59663,4.45996 1.59663,7.14764 0,2.68764 -0.532,5.09734 -1.59663,7.22654 -1.01232,2.07929 -2.43102,3.7263 -4.25607,4.94298 -1.82504,1.2167 -3.9287,1.82404 -6.31219,1.82404 -2.38112,0 -4.48715,-0.60734 -6.3122,-1.82404 -1.82505,-1.21668 -3.27038,-2.86369 -4.33498,-4.94298 -1.01235,-2.1292 -1.52238,-4.5389 -1.52238,-7.22654 0,-2.68768 0.51003,-5.06832 1.52238,-7.14764 1.0646,-2.12922 2.50993,-3.80057 4.33498,-5.01727 1.82505,-1.2167 3.93108,-1.82868 6.3122,-1.82868 z m -67.08563,0.38058 c 2.38109,0 4.48714,0.58299 6.31219,1.74979 1.82502,1.16679 3.24136,2.78943 4.25607,4.86874 1.0646,2.02704 1.59663,4.33474 1.59663,6.92021 0,2.63538 -0.53203,4.98942 -1.59663,7.06874 -1.06462,2.02703 -2.5053,3.65205 -4.33034,4.86875 -1.82504,1.16678 -3.90673,1.74976 -6.23792,1.74977 -2.38349,0 -4.48717,-0.58299 -6.31221,-1.74977 -1.82504,-1.2167 -3.27038,-2.84172 -4.335,-4.86875 -1.06461,-2.07932 -1.59663,-4.43336 -1.59663,-7.06874 0,-2.58547 0.53202,-4.89317 1.59663,-6.92021 1.06462,-2.07931 2.50996,-3.70195 4.335,-4.86874 1.82504,-1.1668 3.92872,-1.74979 6.31221,-1.74979 z m -50.400118,0.0788 c 2.381116,0 4.482518,0.58295 6.307554,1.74978 1.825048,1.16677 3.246038,2.7628 4.260733,4.78983 1.064614,2.02702 1.596611,4.33473 1.596611,6.92021 0,2.63538 -0.531997,4.98942 -1.596611,7.06872 -1.014695,2.02704 -2.435685,3.62771 -4.260733,4.7945 -1.825036,1.16679 -3.926438,1.74511 -6.307554,1.74511 -2.333583,0 -4.412905,-0.57832 -6.237928,-1.74511 -1.775141,-1.16679 -3.191483,-2.76746 -4.256085,-4.7945 -1.014695,-2.0793 -1.522367,-4.43334 -1.522367,-7.06872 0,-2.58548 0.507672,-4.89319 1.522367,-6.92021 1.064602,-2.02703 2.480944,-3.62306 4.256085,-4.78983 1.825023,-1.16679 3.904345,-1.74978 6.237928,-1.74978 z m 165.379518,0 c 2.3811,0 4.48714,0.58295 6.31219,1.74978 1.82505,1.16677 3.24139,2.7628 4.25609,4.78983 1.06462,2.02702 1.59661,4.33473 1.59661,6.92021 0,2.63538 -0.53199,4.98942 -1.59661,7.06872 -1.0147,2.02704 -2.43104,3.62771 -4.25609,4.7945 -1.82505,1.16679 -3.93109,1.74511 -6.31219,1.74511 -2.33359,0 -4.41291,-0.57832 -6.23794,-1.74511 -1.77514,-1.16679 -3.19147,-2.76746 -4.25608,-4.7945 -1.01472,-2.0793 -1.52236,-4.43334 -1.52236,-7.06872 0,-2.58548 0.50764,-4.89319 1.52236,-6.92021 1.06461,-2.02703 2.48094,-3.62306 4.25608,-4.78983 1.82503,-1.16679 3.90435,-1.74978 6.23794,-1.74978 z"
     style="fill:#0043a8;stroke-width:2.37636"
     id="path14" />
  <path
     id="path7"
     d="m 363.21176,157.6734 c -1.12344,-0.0798 -2.29867,0.56283 -2.54345,1.99578 l -7.17084,41.83686 -28.66941,-38.53689 c -1.74188,-2.33834 -5.3624,-0.14971 -4.10293,2.47847 l 18.72306,39.09382 -20.86737,-11.90498 c -2.43336,-1.3878 -4.87307,1.7913 -2.90546,3.78267 l 14.58305,14.76868 -39.16348,-1.59197 c -2.89914,-0.11633 -3.49134,4.04955 -0.67297,4.74344 l 38.72252,9.54255 c 2.42864,0.59645 2.44471,4.04182 0.0238,4.66915 l -16.32351,4.21434 c -2.69005,0.69388 -2.26277,4.64135 0.51517,4.73878 l 8.42865,0.29241 -11.52441,8.07125 c -2.30029,1.61116 -0.44717,5.18807 2.19535,4.23754 l 29.25424,-10.50331 c 1.7585,-0.63212 3.53575,0.89227 3.17931,2.72444 l -5.96875,30.63736 c -0.52755,2.71379 3.19056,4.0301 4.49282,1.59197 l 5.04046,-9.4358 1.2021,20.97875 c 0.16396,2.87065 4.31718,3.09039 4.78055,0.25063 l 6.26114,-38.36976 c 0.29704,0.21149 0.55263,0.50207 0.73798,0.86327 l 17.52562,34.33183 c 1.29986,2.54033 5.15365,1.11161 4.48352,-1.66159 l -8.23369,-34.09979 13.16741,7.6025 c 2.33596,1.34977 4.78645,-1.57612 3.04935,-3.6388 l -9.39404,-11.15309 52.0617,11.83073 c 2.88726,0.65588 4.17873,-3.46183 1.43879,-4.57634 l -46.11151,-18.75094 26.55299,0.0279 c 2.88254,0.005 3.33343,-4.13474 0.51984,-4.75734 l -29.75087,-6.57675 27.42557,-15.78976 c 2.49755,-1.4377 0.82093,-5.24879 -1.92615,-4.38142 l -40.11029,12.67081 22.4547,-41.5723 c 1.38066,-2.55934 -2.11001,-4.91883 -3.96833,-2.6827 l -24.19056,29.10572 -0.98858,-34.76347 c -0.0404,-1.45314 -1.10908,-2.25468 -2.23251,-2.33461 z"
     style="fill:#f7c7b8;stroke-width:2.37636" />
</svg>
