<?xml version="1.0" encoding="UTF-8" standalone="no"?>
<svg
   width="128"
   height="128"
   viewBox="0 0 128 128"
   version="1.1"
   xml:space="preserve"
   style="clip-rule:evenodd;fill-rule:evenodd;stroke-linejoin:round;stroke-miterlimit:2"
   id="svg4"
   sodipodi:docname="splash2.svg"
   inkscape:version="1.3-beta (cedbd6c6ff, 2023-05-28)"
   xmlns:inkscape="http://www.inkscape.org/namespaces/inkscape"
   xmlns:sodipodi="http://sodipodi.sourceforge.net/DTD/sodipodi-0.dtd"
   xmlns="http://www.w3.org/2000/svg"
   xmlns:svg="http://www.w3.org/2000/svg"><defs
   id="defs4" /><sodipodi:namedview
   id="namedview4"
   pagecolor="#ffffff"
   bordercolor="#000000"
   borderopacity="0.25"
   inkscape:showpageshadow="2"
   inkscape:pageopacity="0.0"
   inkscape:pagecheckerboard="0"
   inkscape:deskcolor="#d1d1d1"
   inkscape:zoom="1.7039474"
   inkscape:cx="227.70656"
   inkscape:cy="228"
   inkscape:window-width="1920"
   inkscape:window-height="991"
   inkscape:window-x="-9"
   inkscape:window-y="-9"
   inkscape:window-maximized="1"
   inkscape:current-layer="svg4" />&#10;    &#10;    &#10;    &#10;    &#10;<path
   d="m 62.986624,32.961698 c -0.52046,-0.037 -1.06462,0.26066 -1.17803,0.9245 l -3.32212,19.38181 -13.28207,-17.85307 c -0.80697,-1.08329 -2.48402,-0.0694 -1.90054,1.14817 l 8.67419,18.11127 -9.66778,-5.51541 c -1.12732,-0.64293 -2.25761,0.82986 -1.34607,1.75241 l 6.75609,6.84215 -18.14348,-0.73773 c -1.34309,-0.0539 -1.61716,1.87651 -0.31148,2.19797 l 17.93913,4.42052 c 1.12513,0.27632 1.13267,1.8728 0.0111,2.16343 l -7.56231,1.95205 c -1.24623,0.32146 -1.04865,2.15049 0.23829,2.19563 l 3.9047,0.13525 -5.33859,3.73959 c -1.06566,0.74641 -0.20719,2.40295 1.01702,1.96259 l 13.55257,-4.8655 c 0.81467,-0.29285 1.63825,0.41295 1.47312,1.26175 l -2.76532,14.19369 c -0.2444,1.25723 1.47815,1.86726 2.08146,0.73774 l 2.33497,-4.37135 0.55681,9.71872 c 0.076,1.3299 2.00028,1.43152 2.21495,0.11593 l 2.90056,-17.77579 c 0.13761,0.098 0.25607,0.23315 0.34194,0.40048 l 8.11913,15.90453 c 0.60219,1.17687 2.3878,0.5154 2.07735,-0.76934 l -3.81453,-15.79797 6.09974,3.52237 c 1.08218,0.62531 2.21756,-0.73007 1.41281,-1.68566 l -4.35202,-5.16704 24.11909,5.48087 c 1.33759,0.30385 1.93564,-1.60377 0.6663,-2.12009 l -21.36197,-8.68707 12.30135,0.0129 c 1.33541,0.002 1.54411,-1.91539 0.24064,-2.20382 l -13.78267,-3.04694 12.70535,-7.31466 c 1.15706,-0.66605 0.38035,-2.43176 -0.8923,-2.02993 l -18.58202,5.87023 10.40258,-19.25944 c 0.63963,-1.18568 -0.97755,-2.27896 -1.83847,-1.24302 l -11.20647,13.48407 -0.45844,-16.10536 c -0.0187,-0.67319 -0.51354,-1.04438 -1.034,-1.08141 z"
   style="fill:#ffffff;stroke-width:1.10091"
   id="path4" /></svg>
