<svg width="360" height="800" viewBox="0 0 360 800" fill="none" xmlns="http://www.w3.org/2000/svg">
<rect width="360" height="800" fill="white"/>
<path d="M113.258 411C112.214 411 111.242 410.866 110.344 410.597C109.464 410.328 108.658 409.924 107.925 409.387C107.21 408.831 106.568 408.15 106 407.343L108.035 405.058C108.933 406.312 109.794 407.182 110.619 407.666C111.444 408.15 112.424 408.392 113.561 408.392C114.257 408.392 114.89 408.284 115.458 408.069C116.026 407.854 116.475 407.558 116.805 407.182C117.135 406.805 117.3 406.375 117.3 405.891C117.3 405.569 117.245 405.264 117.135 404.977C117.025 404.69 116.851 404.43 116.613 404.197C116.393 403.964 116.099 403.749 115.733 403.552C115.385 403.355 114.972 403.184 114.496 403.041C114.019 402.88 113.469 402.745 112.846 402.638C111.856 402.44 110.995 402.181 110.262 401.858C109.528 401.535 108.914 401.132 108.419 400.648C107.925 400.164 107.558 399.617 107.32 399.008C107.081 398.38 106.962 397.681 106.962 396.91C106.962 396.157 107.127 395.458 107.457 394.813C107.805 394.168 108.273 393.612 108.859 393.146C109.464 392.662 110.17 392.294 110.976 392.044C111.783 391.775 112.654 391.64 113.588 391.64C114.578 391.64 115.485 391.766 116.31 392.017C117.135 392.268 117.868 392.644 118.51 393.146C119.151 393.63 119.683 394.23 120.104 394.948L118.015 396.964C117.648 396.373 117.236 395.88 116.778 395.485C116.319 395.073 115.815 394.768 115.265 394.571C114.716 394.356 114.129 394.248 113.506 394.248C112.791 394.248 112.168 394.356 111.636 394.571C111.105 394.786 110.683 395.091 110.372 395.485C110.078 395.862 109.932 396.31 109.932 396.83C109.932 397.206 110.005 397.556 110.152 397.878C110.298 398.183 110.518 398.461 110.811 398.712C111.123 398.945 111.535 399.16 112.049 399.357C112.562 399.536 113.176 399.698 113.891 399.841C114.899 400.056 115.797 400.334 116.585 400.675C117.373 400.997 118.042 401.383 118.592 401.831C119.142 402.279 119.554 402.781 119.829 403.337C120.123 403.892 120.269 404.493 120.269 405.138C120.269 406.339 119.985 407.379 119.417 408.257C118.849 409.136 118.042 409.817 116.998 410.301C115.953 410.767 114.706 411 113.258 411Z" fill="#0043A8"/>
<path d="M129.315 411C128.124 411 127.033 410.677 126.044 410.032C125.072 409.387 124.293 408.508 123.707 407.397C123.12 406.286 122.827 405.031 122.827 403.633C122.827 402.216 123.12 400.962 123.707 399.868C124.312 398.757 125.118 397.887 126.126 397.26C127.153 396.633 128.298 396.319 129.563 396.319C130.314 396.319 131.002 396.426 131.625 396.641C132.248 396.857 132.789 397.161 133.247 397.556C133.724 397.932 134.109 398.371 134.402 398.873C134.713 399.375 134.906 399.913 134.979 400.487L134.347 400.271V396.615H137.206V410.731H134.347V407.37L135.007 407.182C134.897 407.666 134.668 408.141 134.319 408.607C133.989 409.055 133.559 409.458 133.027 409.817C132.514 410.175 131.937 410.462 131.295 410.677C130.672 410.892 130.012 411 129.315 411ZM130.058 408.446C130.919 408.446 131.68 408.239 132.34 407.827C133 407.415 133.513 406.85 133.879 406.133C134.264 405.398 134.457 404.565 134.457 403.633C134.457 402.718 134.264 401.903 133.879 401.186C133.513 400.469 133 399.904 132.34 399.492C131.68 399.079 130.919 398.873 130.058 398.873C129.215 398.873 128.463 399.079 127.803 399.492C127.162 399.904 126.649 400.469 126.264 401.186C125.897 401.903 125.714 402.718 125.714 403.633C125.714 404.565 125.897 405.398 126.264 406.133C126.649 406.85 127.162 407.415 127.803 407.827C128.463 408.239 129.215 408.446 130.058 408.446Z" fill="#0043A8"/>
<path d="M148.748 411C148.125 411 147.502 410.901 146.879 410.704C146.274 410.507 145.715 410.247 145.202 409.924C144.707 409.584 144.285 409.216 143.937 408.822C143.607 408.41 143.387 407.997 143.277 407.585L143.992 407.209V410.65H141.16V390.834H143.992V399.841L143.552 399.599C143.644 399.187 143.845 398.793 144.157 398.416C144.469 398.022 144.863 397.672 145.339 397.367C145.834 397.045 146.366 396.794 146.934 396.615C147.502 396.417 148.079 396.319 148.666 396.319C149.967 396.319 151.122 396.633 152.13 397.26C153.138 397.887 153.936 398.757 154.522 399.868C155.109 400.962 155.402 402.216 155.402 403.633C155.402 405.049 155.109 406.312 154.522 407.424C153.954 408.535 153.166 409.414 152.158 410.059C151.15 410.686 150.013 411 148.748 411ZM148.281 408.472C149.124 408.472 149.876 408.266 150.536 407.854C151.195 407.424 151.718 406.85 152.103 406.133C152.488 405.398 152.68 404.565 152.68 403.633C152.68 402.718 152.488 401.903 152.103 401.186C151.736 400.451 151.223 399.877 150.563 399.465C149.903 399.052 149.143 398.846 148.281 398.846C147.42 398.846 146.659 399.052 145.999 399.465C145.339 399.877 144.817 400.451 144.432 401.186C144.047 401.903 143.855 402.718 143.855 403.633C143.855 404.565 144.047 405.398 144.432 406.133C144.817 406.85 145.339 407.424 145.999 407.854C146.659 408.266 147.42 408.472 148.281 408.472Z" fill="#0043A8"/>
<path d="M158.945 410.731V396.615H161.777V410.731H158.945ZM160.32 393.496C159.715 393.496 159.248 393.343 158.918 393.038C158.588 392.734 158.423 392.303 158.423 391.748C158.423 391.228 158.588 390.807 158.918 390.484C159.266 390.161 159.734 390 160.32 390C160.925 390 161.392 390.152 161.722 390.457C162.052 390.762 162.217 391.192 162.217 391.748C162.217 392.268 162.043 392.689 161.695 393.012C161.365 393.334 160.907 393.496 160.32 393.496Z" fill="#0043A8"/>
<path d="M172.151 411C170.832 411 169.649 410.686 168.605 410.059C167.578 409.414 166.763 408.544 166.158 407.451C165.553 406.339 165.25 405.076 165.25 403.659C165.25 402.243 165.544 400.988 166.13 399.895C166.735 398.784 167.551 397.914 168.577 397.287C169.604 396.641 170.767 396.319 172.069 396.319C172.784 396.319 173.471 396.435 174.131 396.668C174.809 396.883 175.414 397.188 175.945 397.583C176.477 397.959 176.889 398.38 177.183 398.846C177.494 399.294 177.65 399.752 177.65 400.218L176.825 400.271V390.834H179.657V410.731H176.825V407.37H177.375C177.375 407.8 177.229 408.23 176.935 408.661C176.642 409.073 176.248 409.458 175.753 409.817C175.276 410.175 174.717 410.462 174.076 410.677C173.453 410.892 172.811 411 172.151 411ZM172.536 408.607C173.398 408.607 174.158 408.392 174.818 407.962C175.478 407.531 175.991 406.949 176.358 406.214C176.743 405.461 176.935 404.609 176.935 403.659C176.935 402.709 176.743 401.867 176.358 401.132C175.991 400.379 175.478 399.787 174.818 399.357C174.158 398.927 173.398 398.712 172.536 398.712C171.675 398.712 170.914 398.927 170.254 399.357C169.594 399.787 169.072 400.379 168.687 401.132C168.321 401.867 168.137 402.709 168.137 403.659C168.137 404.609 168.321 405.461 168.687 406.214C169.072 406.949 169.594 407.531 170.254 407.962C170.914 408.392 171.675 408.607 172.536 408.607Z" fill="#0043A8"/>
<path d="M189.109 411C187.918 411 186.827 410.677 185.837 410.032C184.866 409.387 184.087 408.508 183.501 407.397C182.914 406.286 182.621 405.031 182.621 403.633C182.621 402.216 182.914 400.962 183.501 399.868C184.105 398.757 184.912 397.887 185.92 397.26C186.946 396.633 188.092 396.319 189.357 396.319C190.108 396.319 190.796 396.426 191.419 396.641C192.042 396.857 192.583 397.161 193.041 397.556C193.517 397.932 193.902 398.371 194.196 398.873C194.507 399.375 194.7 399.913 194.773 400.487L194.141 400.271V396.615H197V410.731H194.141V407.37L194.8 407.182C194.691 407.666 194.461 408.141 194.113 408.607C193.783 409.055 193.352 409.458 192.821 409.817C192.308 410.175 191.73 410.462 191.089 410.677C190.466 410.892 189.806 411 189.109 411ZM189.852 408.446C190.713 408.446 191.474 408.239 192.134 407.827C192.793 407.415 193.307 406.85 193.673 406.133C194.058 405.398 194.251 404.565 194.251 403.633C194.251 402.718 194.058 401.903 193.673 401.186C193.307 400.469 192.793 399.904 192.134 399.492C191.474 399.079 190.713 398.873 189.852 398.873C189.008 398.873 188.257 399.079 187.597 399.492C186.956 399.904 186.442 400.469 186.057 401.186C185.691 401.903 185.508 402.718 185.508 403.633C185.508 404.565 185.691 405.398 186.057 406.133C186.442 406.85 186.956 407.415 187.597 407.827C188.257 408.239 189.008 408.446 189.852 408.446Z" fill="#0043A8"/>
<path d="M229.327 377.839C229.298 376.797 227.789 376.69 227.613 377.718L225.043 392.717L214.763 378.9C214.139 378.062 212.84 378.846 213.291 379.789L220.005 393.806L212.523 389.537C211.651 389.039 210.775 390.179 211.481 390.893L216.711 396.188L202.669 395.619C201.628 395.577 201.416 397.071 202.427 397.32L216.31 400.74C217.181 400.955 217.188 402.19 216.32 402.414L210.466 403.925C209.501 404.175 209.656 405.59 210.652 405.624L213.674 405.73L209.541 408.624C208.716 409.202 209.38 410.484 210.328 410.144L220.818 406.377C221.448 406.15 222.085 406.697 221.957 407.354L219.819 418.339C219.629 419.311 220.961 419.785 221.428 418.91L223.235 415.526L223.667 423.048C223.726 424.078 225.215 424.156 225.381 423.138L227.626 409.381C227.732 409.457 227.823 409.56 227.89 409.691L234.174 421.999C234.639 422.911 236.022 422.399 235.782 421.404L232.829 409.177L237.551 411.903C238.388 412.387 239.266 411.339 238.643 410.599L235.275 406.601L253.942 410.842C254.977 411.077 255.441 409.6 254.458 409.2L237.925 402.478L247.445 402.489C248.478 402.49 248.641 401.005 247.632 400.782L236.965 398.424L246.798 392.763C247.693 392.248 247.092 390.88 246.107 391.192L231.726 395.735L239.777 380.829C240.272 379.912 239.019 379.065 238.353 379.867L229.681 390.303L229.327 377.839Z" fill="#F7C7B8"/>
</svg>
